<?xml version="1.0" standalone="no"?>
<!DOCTYPE svg PUBLIC "-//W3C//DTD SVG 1.1//EN" "http://www.w3.org/Graphics/SVG/1.1/DTD/svg11.dtd" >
<svg xmlns="http://www.w3.org/2000/svg">
<metadata></metadata>
<defs>
<font id="18vag_rounded_mbold" horiz-adv-x="1176" >
<font-face units-per-em="2048" ascent="1638" descent="-410" />
<missing-glyph horiz-adv-x="1024" />
<glyph horiz-adv-x="2048" />
<glyph horiz-adv-x="2048" />
<glyph unicode="&#xd;" horiz-adv-x="1024" />
<glyph unicode=" "  horiz-adv-x="1024" />
<glyph unicode="&#x09;" horiz-adv-x="1024" />
<glyph unicode="&#xa0;" horiz-adv-x="1024" />
<glyph unicode="!" horiz-adv-x="684" d="M182 135q0 66 47 113t113 47t113 -47t47 -113t-47 -113t-113 -47t-113 47t-47 113zM195 555v788q0 65 40.5 102.5t106.5 37.5q67 0 107 -37t40 -103v-788q0 -64 -41 -101.5t-106 -37.5q-61 0 -104 39t-43 100z" />
<glyph unicode="&#x22;" horiz-adv-x="909" d="M145 1012v348q0 123 123 123t123 -123v-348q0 -123 -123 -123t-123 123zM518 1012v348q0 123 123 123t123 -123v-348q0 -123 -123 -123t-123 123z" />
<glyph unicode="#" horiz-adv-x="1229" d="M0 514q0 98 98 98h205l33 234h-176q-99 0 -99 98t99 98h205l45 330q13 98 102 98q37 0 65.5 -22.5t28.5 -58.5v-23l-4 -27l-41 -297h197l45 330q13 98 102 98q37 0 65.5 -22.5t28.5 -58.5v-23l-4 -27l-41 -297h176q99 0 99 -98t-99 -98h-204l-33 -234h176q98 0 98 -98 t-98 -98h-205l-45 -330q-13 -98 -102 -98q-94 0 -94 82v24q1 5 4 25l41 297h-197l-45 -330q-13 -98 -102 -98q-38 0 -66.5 22.5t-28.5 59.5v24q1 5 4 25l41 297h-176q-98 0 -98 98zM502 612h194l33 234h-194z" />
<glyph unicode="$" horiz-adv-x="1100" d="M39 205q0 62 38 103.5t99 41.5q53 0 154 -35t155 -43v342q-107 30 -151 45q-82 29 -141 68q-148 99 -148 291q0 190 127 317q121 123 313 144v63q0 47 7 66q11 30 49 30q39 0 49 -30q6 -18 6 -66v-63q220 -11 319 -107q39 -38 39 -94q0 -65 -36 -107q-38 -45 -101 -45 q-40 0 -110 25q-75 27 -111 31v-273q164 -45 240 -86q225 -119 225 -372q0 -199 -135 -329q-129 -124 -330 -140v-66q0 -96 -55 -96q-56 0 -56 96v64q-284 10 -399 116q-47 43 -47 109zM377 1055q0 -68 108 -109v234q-108 -29 -108 -125zM596 281q133 30 133 165 q0 89 -133 134v-299z" />
<glyph unicode="%" horiz-adv-x="1479" d="M63 1151q0 135 91 233.5t225 98.5q135 0 225 -98t90 -234q0 -137 -88 -232q-91 -98 -227 -98q-133 0 -224.5 98.5t-91.5 231.5zM272 1151q0 -51 28.5 -86t78.5 -35t78 35t28 86q0 123 -106 123q-50 0 -78.5 -35.5t-28.5 -87.5zM285 76q0 38 20 76l678 1278q34 65 94 65 q49 0 85 -33.5t36 -81.5q0 -31 -16 -61l-688 -1288q-48 -68 -93 -68q-42 0 -79 35t-37 78zM784 305q0 136 90.5 234t225.5 98t225 -97.5t90 -234.5t-88 -232q-91 -98 -227 -98q-135 0 -225.5 97.5t-90.5 232.5zM993 305q0 -51 28.5 -86t78.5 -35t78 35t28 86q0 123 -106 123 q-50 0 -78.5 -35.5t-28.5 -87.5z" />
<glyph unicode="&#x26;" horiz-adv-x="1442" d="M49 418q0 274 309 444q-135 135 -135 277q0 167 137 262q119 82 293 82q160 0 281 -80q137 -90 137 -242q0 -223 -260 -358l215 -238l80 92q83 95 156 95q50 0 81 -38.5t31 -90.5q0 -77 -112 -195l-52 -55l140 -158q45 -51 45 -102q0 -57 -43 -97.5t-101 -40.5 q-62 0 -108 48l-142 147q-221 -195 -450 -195q-339 0 -461 254q-41 85 -41 189zM344 446q0 -95 60 -148q57 -52 153 -52q133 0 260 119l-297 329q-176 -114 -176 -248zM530 1147q0 -72 109 -176q51 27 76 45q73 53 73 114q0 96 -90 115q-19 4 -45 4q-45 0 -82 -28 q-41 -30 -41 -74z" />
<glyph unicode="'" horiz-adv-x="492" d="M123 1012v348q0 123 123 123t123 -123v-348q0 -123 -123 -123t-123 123z" />
<glyph unicode="(" horiz-adv-x="494" d="M80 584q0 186 51 454q61 318 154 418q25 27 67 27q54 0 92.5 -33t38.5 -86q0 -19 -39 -135q-106 -314 -106 -645q0 -343 94 -607q13 -36 45 -131q6 -19 6 -30q0 -58 -36.5 -94.5t-94.5 -36.5q-61 0 -106 77q-72 122 -123 402q-43 235 -43 420z" />
<glyph unicode=")" horiz-adv-x="494" d="M10 -197q0 21 39 136q107 315 107 645q0 340 -95 606q-16 45 -47 137q-4 15 -4 25q0 59 36 95t95 36q61 0 107 -78q75 -129 125 -399q41 -224 41 -422q0 -203 -49 -455q-63 -322 -156 -418q-25 -26 -68 -26q-53 0 -92 33t-39 85z" />
<glyph unicode="*" horiz-adv-x="797" d="M59 961q0 68 111 104q35 11 51 20q-13 5 -78 33q-42 19 -67 47q-17 20 -17 47q0 47 28.5 83t74.5 36q38 0 147 -84q-2 17 -9 66.5t-7 62.5q0 94 104 94q105 0 105 -94q0 -16 -8 -63q-5 -31 -9 -66q23 18 70 53q44 31 76 31q45 0 75.5 -36.5t30.5 -82.5q0 -65 -110 -104 q-30 -11 -54 -23q40 -15 79 -30q49 -21 69 -45q16 -19 16 -49q0 -46 -30 -82q-31 -39 -76 -39q-33 0 -76 32l-70 54q3 -17 11 -62q6 -35 6 -67q0 -95 -105 -95q-104 0 -104 95v-3q2 0 16 132l-69 -54q-44 -32 -78 -32q-46 0 -74.5 37t-28.5 84z" />
<glyph unicode="+" horiz-adv-x="1229" d="M72 518q0 123 123 123h297v297q0 123 122 123q123 0 123 -123v-297h297q123 0 123 -123t-123 -123h-297v-297q0 -123 -123 -123q-122 0 -122 123v297h-297q-123 0 -123 123z" />
<glyph unicode="," horiz-adv-x="549" d="M-20 -139q0 21 8 41l16 41l170 307q38 69 119 69q57 0 99 -39t42 -96q0 -36 -26 -82l-172 -307q-39 -69 -117 -69q-53 0 -96 41t-43 94z" />
<glyph unicode="-" horiz-adv-x="797" d="M63 592q0 55 31.5 93t85.5 38h436q57 0 89 -39q28 -34 28 -92q0 -54 -31.5 -90.5t-85.5 -36.5h-436q-51 0 -86 41q-31 37 -31 86z" />
<glyph unicode="." horiz-adv-x="549" d="M115 135q0 66 46.5 113t112.5 47t113 -47t47 -113t-47 -113t-113 -47q-65 0 -112 47.5t-47 112.5z" />
<glyph unicode="/" horiz-adv-x="834" d="M16 88q0 13 19 57l547 1262q33 76 114 76q51 0 86 -31t35 -82q0 -15 -18 -57l-545 -1262q-33 -76 -115 -76q-49 0 -86 32.5t-37 80.5z" />
<glyph unicode="0" d="M45 729q0 299 117 502q145 252 426 252t426 -252q116 -201 116 -502t-116 -502q-145 -252 -426 -252t-426 252q-117 203 -117 502zM365 729q0 -299 100 -420q45 -55 123 -55q135 0 190 184q33 110 33 291q0 308 -100 424q-44 51 -123 51q-223 0 -223 -475z" />
<glyph unicode="1" horiz-adv-x="758" d="M51 1317q0 59 40.5 100t98.5 41h291q63 0 100 -40.5t37 -104.5v-1166q0 -72 -41 -115.5t-112 -43.5t-112.5 44t-41.5 115v1029h-121q-63 0 -101 39t-38 102z" />
<glyph unicode="2" d="M92 135q0 51 47 105q87 99 262 299q154 177 248 313q72 104 72 190q0 66 -41.5 112t-106.5 46q-98 0 -143 -86q-13 -25 -43 -117q-42 -129 -133 -129q-68 0 -109 41t-41 109q0 191 146 329q143 136 336 136q196 0 323 -114q131 -118 131 -312q0 -189 -180 -418 q-86 -102 -311 -369h375q159 0 159 -135t-147 -135h-684q-160 0 -160 135z" />
<glyph unicode="3" d="M66 360q0 59 50 100q46 38 107 38q44 0 82 -41q9 -10 53 -78q78 -121 203 -121q82 0 137.5 55t55.5 136q0 122 -90 157q-27 11 -84 19q-60 9 -84 16q-90 27 -90 125q0 68 40 100q29 23 105 43.5t106 46.5q39 34 39 107q0 64 -41 100.5t-106 36.5q-103 0 -174 -100 q-43 -60 -53 -70q-32 -31 -80 -31q-61 0 -98 46q-35 43 -35 106q0 139 158 241q141 91 288 91q206 0 330 -127q106 -108 106 -248q0 -207 -168 -313q115 -53 182.5 -149.5t67.5 -217.5q0 -140 -91 -255q-86 -109 -222 -161q-97 -37 -203 -37q-206 0 -358 134 q-133 117 -133 251z" />
<glyph unicode="4" d="M33 442q0 39 28 90l459 832q66 119 209 119q112 0 176 -76q60 -71 60 -186v-629h34q62 0 103 -37t41 -98q0 -62 -40.5 -98.5t-103.5 -36.5h-34v-175q0 -159 -148 -159q-147 0 -147 159v175h-494q-58 0 -99 30q-44 33 -44 90zM389 592h281v571h-4z" />
<glyph unicode="5" d="M66 250q0 58 40.5 98.5t98.5 40.5q27 0 137 -65.5t180 -65.5q104 0 164 85q53 75 53 183q0 207 -196 207q-52 0 -125.5 -33.5t-116.5 -33.5t-80 26q-41 28 -41 70q0 21 2 37l4 32l52 433q12 102 36 139q35 55 123 55h494q64 0 104 -32q45 -35 45 -97q0 -153 -143 -153 h-385l-31 -218q92 21 154 21q183 0 303.5 -126t120.5 -310q0 -262 -139 -413q-144 -155 -404 -155q-137 0 -278 70q-172 85 -172 205z" />
<glyph unicode="6" d="M74 483q0 209 182 512q149 248 338 424q62 58 98 62q18 2 29 2q50 0 97.5 -50t47.5 -100q0 -30 -43 -84q-100 -104 -282 -327l4 -4q55 24 129 24q184 0 308 -139q120 -134 120 -320q0 -214 -149.5 -361t-364.5 -147q-231 0 -375 152q-139 146 -139 356zM393 483 q0 -91 52.5 -152t142.5 -61q89 0 143 63q51 60 51 150q0 92 -51.5 152.5t-142.5 60.5q-90 0 -144 -63q-51 -59 -51 -150z" />
<glyph unicode="7" horiz-adv-x="1102" d="M31 1317q0 141 151 141h742q107 0 139 -100q8 -25 8 -47q0 -39 -47 -135l-508 -1033q-42 -86 -61 -108q-40 -47 -111 -47q-65 0 -116 39q-54 42 -54 106q0 32 21 72l512 971h-525q-151 0 -151 141z" />
<glyph unicode="8" d="M82 442q0 238 219 355q-156 110 -156 293q0 179 136 290q126 103 307 103q182 0 309 -104q135 -111 135 -289q0 -195 -158 -293q220 -107 220 -355q0 -210 -152 -342q-144 -125 -354 -125q-151 0 -276 71q-132 75 -191 208q-39 87 -39 188zM401 463q0 -86 51.5 -145.5 t135.5 -59.5t135 60t51 145q0 92 -46 147q-50 58 -140 58q-86 0 -138 -61q-49 -57 -49 -144zM440 1057q0 -156 148 -156q149 0 149 156q0 155 -149 155q-69 0 -108.5 -42.5t-39.5 -112.5z" />
<glyph unicode="9" d="M74 975q0 215 149 361.5t365 146.5q232 0 377 -152q137 -144 137 -356q0 -209 -182 -512q-151 -251 -338 -424q-62 -57 -99 -62q-15 -2 -28 -2q-50 0 -98 50t-48 100q0 31 43 84q101 104 283 328l-4 4q-56 -25 -129 -25q-182 0 -307 140q-121 135 -121 319zM393 975 q0 -91 52.5 -152t142.5 -61q89 0 143 63q51 59 51 150q0 92 -50 151q-54 62 -144 62q-89 0 -142 -61.5t-53 -151.5z" />
<glyph unicode=":" horiz-adv-x="549" d="M115 135q0 66 46.5 113t112.5 47t113 -47t47 -113t-47 -113t-113 -47q-65 0 -112 47.5t-47 112.5zM115 793q0 65 47 112t112 47q66 0 113 -46.5t47 -112.5t-47 -113t-113 -47t-112.5 47t-46.5 113z" />
<glyph unicode=";" horiz-adv-x="549" d="M-20 -139q0 21 8 41l16 41l170 307q38 69 119 69q57 0 99 -39t42 -96q0 -36 -26 -82l-172 -307q-39 -69 -117 -69q-53 0 -96 41t-43 94zM115 793q0 65 47 112t112 47q66 0 113 -46.5t47 -112.5t-47 -113t-113 -47t-112.5 47t-46.5 113z" />
<glyph unicode="&#x3c;" horiz-adv-x="1229" d="M72 518q0 83 75 117l809 371q65 30 103 30q98 0 98 -129q0 -73 -74 -104l-682 -285l682 -285q74 -31 74 -104q0 -129 -98 -129q-40 0 -103 29l-809 372q-75 34 -75 117z" />
<glyph unicode="=" horiz-adv-x="1229" d="M72 289q0 123 123 123h839q123 0 123 -123t-123 -123h-839q-123 0 -123 123zM72 748q0 122 123 122h839q123 0 123 -122q0 -123 -123 -123h-839q-123 0 -123 123z" />
<glyph unicode="&#x3e;" horiz-adv-x="1229" d="M72 129q0 73 73 104l682 285l-682 285q-73 31 -73 104q0 129 98 129q37 0 102 -30l809 -371q76 -35 76 -117t-76 -117l-809 -372q-63 -29 -102 -29q-98 0 -98 129z" />
<glyph unicode="?" horiz-adv-x="985" d="M6 1145q0 149 158 250q138 88 297 88q147 0 264 -62q127 -67 186 -192q39 -82 39 -185q0 -321 -354 -413v-74q0 -64 -41.5 -102.5t-105.5 -38.5q-65 0 -106.5 38.5t-41.5 102.5v205q0 52 59 78q11 5 107 30q164 43 164 174q0 67 -51.5 111.5t-118.5 44.5q-78 0 -139 -59 q-35 -37 -107 -111q-33 -33 -84 -33q-60 0 -94 45q-31 41 -31 103zM289 135q0 66 47 113t113 47t112.5 -47t46.5 -113t-47 -113t-112 -47q-66 0 -113 47t-47 113z" />
<glyph unicode="@" horiz-adv-x="1638" d="M66 729q0 314 219.5 534t533.5 220q217 0 406 -105q186 -103 284 -291q64 -122 64 -262q0 -255 -225 -407q-164 -111 -301 -111q-142 0 -142 101h-4q-88 -101 -215 -101q-98 0 -175 68q-71 62 -105 160q-23 67 -23 129q0 132 59 242q62 116 174 175q74 39 166 39 q160 0 240 -123h4v25q0 98 115 98q94 0 94 -57q0 -30 -8 -66l-82 -372q-8 -36 -8 -68q0 -43 47 -43q61 0 125 74q80 92 80 237q0 218 -183 353q-163 120 -387 120q-237 0 -403 -166t-166 -403t166 -403t403 -166q240 0 426 96q20 10 70 51q46 37 67 37q76 0 76 -76 q0 -43 -55 -110q-203 -183 -584 -183q-311 0 -532 224t-221 530zM592 692q0 -73 35 -121q40 -55 108 -55q90 0 149 66q56 64 56 155q0 76 -41 125t-115 49q-81 0 -138 -70q-54 -66 -54 -149z" />
<glyph unicode="A" horiz-adv-x="1290" d="M4 131q0 10 14 68l412 1114q63 170 219 170q158 0 219 -170l402 -1114q16 -44 16 -76q0 -59 -42 -97t-99 -38q-116 0 -150 106l-61 193h-569l-62 -191q-35 -108 -147 -108q-62 0 -107 40.5t-45 102.5zM453 569h389l-191 594h-4z" />
<glyph unicode="B" d="M92 156v1149q0 71 45 112t117 41h393q256 0 354 -211q31 -67 31 -149q0 -211 -190 -301v-4q135 -21 223 -117t88 -232q0 -213 -133 -331q-126 -113 -342 -113h-422q-71 0 -117.5 43t-46.5 113zM399 270h242q86 0 139.5 47t53.5 132q0 161 -218 161h-217v-340zM399 881 h160q76 0 121 43t45 118q0 146 -166 146h-160v-307z" />
<glyph unicode="C" horiz-adv-x="1251" d="M35 729q0 324 196 539t508 215q267 0 394 -117q47 -43 47 -113q0 -57 -35.5 -97t-91.5 -40q-28 0 -134.5 36t-179.5 36q-187 0 -293 -146q-92 -127 -92 -319q0 -194 99 -317q109 -136 286 -136q76 0 184.5 43t141.5 43q93 0 127 -96q8 -22 8 -43q0 -129 -174 -194 q-128 -48 -287 -48q-314 0 -514 226q-190 214 -190 528z" />
<glyph unicode="D" horiz-adv-x="1366" d="M92 154v1146q0 72 43 115t115 43h340q341 0 533 -205q188 -201 188 -544q0 -321 -190.5 -515t-510.5 -194h-356q-71 0 -116.5 42t-45.5 112zM399 283h207q191 0 292 128q93 116 93 312q0 209 -96 326q-104 127 -309 127h-187v-893z" />
<glyph unicode="E" horiz-adv-x="948" d="M92 154v1126q0 178 160 178h508q63 0 104 -39t41 -102q0 -61 -42 -101t-103 -40h-361v-299h336q68 0 109 -37t41 -105q0 -63 -43 -102t-107 -39h-336v-311h379q64 0 105 -39t41 -103q0 -62 -42 -101.5t-104 -39.5h-528q-68 0 -113 43t-45 111z" />
<glyph unicode="F" horiz-adv-x="909" d="M92 147v1151q0 70 45 115t115 45h524q64 0 100.5 -38.5t36.5 -102.5q0 -62 -37.5 -101.5t-99.5 -39.5h-377v-299h318q65 0 106 -37t41 -103q0 -63 -42 -103t-105 -40h-318v-447q0 -71 -41.5 -115t-111.5 -44q-71 0 -112.5 44t-41.5 115z" />
<glyph unicode="G" horiz-adv-x="1442" d="M35 729q0 324 196 539t508 215q170 0 341 -64q223 -83 223 -225q0 -60 -33 -100q-35 -43 -94 -43q-54 0 -91 24l-79 51q-115 74 -267 74q-186 0 -293 -149q-92 -129 -92 -322q0 -198 97 -328q106 -143 288 -143q154 0 249 84q99 89 99 240h-208q-62 0 -103 41t-41 102 q0 64 40 101.5t104 37.5h348q180 0 180 -196q0 -214 -97 -381q-103 -179 -292 -258q-129 -54 -279 -54q-314 0 -514 226q-190 214 -190 528z" />
<glyph unicode="H" horiz-adv-x="1442" d="M92 147v1164q0 159 154 159q153 0 153 -159v-434h643v434q0 159 154 159t154 -159v-1164q0 -71 -41.5 -115t-112.5 -44t-112.5 44t-41.5 115v447h-643v-447q0 -71 -41.5 -115t-111.5 -44q-71 0 -112.5 44t-41.5 115z" />
<glyph unicode="I" horiz-adv-x="492" d="M92 147v1164q0 159 154 159q153 0 153 -159v-1164q0 -71 -41.5 -115t-111.5 -44q-71 0 -112.5 44t-41.5 115z" />
<glyph unicode="J" horiz-adv-x="834" d="M-29 209q0 47 34.5 86t80.5 39q38 0 121 -37q87 -39 125 -39q76 0 100 61q14 36 14 111v881q0 159 154 159t154 -159v-901q0 -237 -131 -347q-105 -88 -275 -88q-228 0 -338 123q-39 44 -39 111z" />
<glyph unicode="K" horiz-adv-x="1251" d="M92 135v1184q0 69 42 110t112 41q69 0 111 -41t42 -110v-442l504 536q54 57 119 57q66 0 109 -41t43 -106t-101 -164l-387 -381l473 -493q86 -90 86 -156q0 -141 -160 -141q-66 0 -155 96l-531 573v-522q0 -66 -43 -106.5t-110 -40.5t-110.5 40.5t-43.5 106.5z" />
<glyph unicode="L" horiz-adv-x="872" d="M92 168v1143q0 159 154 159q153 0 153 -159v-1028h365q65 0 106 -39t41 -103v-6q-2 -58 -45 -96.5t-102 -38.5h-512q-160 0 -160 168z" />
<glyph unicode="M" horiz-adv-x="1782" d="M49 135v17q0 6 2 18l191 1143q11 67 72 113q58 44 128 44t127.5 -40.5t77.5 -106.5l242 -811h4l242 811q20 69 78 108t126 39q69 0 129.5 -45t71.5 -112l191 -1143q2 -12 2 -18v-17q0 -66 -41 -106.5t-107 -40.5q-139 0 -160 143l-120 834h-5l-245 -859 q-34 -118 -164 -118t-164 118l-246 859h-4l-121 -834q-21 -143 -159 -143q-66 0 -107 40.5t-41 106.5z" />
<glyph unicode="N" horiz-adv-x="1403" d="M80 147v1164q0 159 153 159q35 0 71.5 -20t57.5 -47l650 -866h4v774q0 159 153 159q154 0 154 -159v-1164q0 -71 -41.5 -115t-112.5 -44q-28 0 -69 22q-44 23 -60 45l-649 856h-4v-764q0 -71 -41.5 -115t-112.5 -44q-70 0 -111.5 44t-41.5 115z" />
<glyph unicode="O" horiz-adv-x="1479" d="M35 729q0 324 196 539t508 215q309 0 511 -225q194 -216 194 -529q0 -319 -195 -534q-200 -220 -510 -220q-314 0 -514 226q-190 214 -190 528zM354 729q0 -198 97 -328q106 -143 288 -143q189 0 293 148q92 131 92 323q0 313 -217 432q-71 39 -168 39q-186 0 -293 -149 q-92 -129 -92 -322z" />
<glyph unicode="P" horiz-adv-x="1139" d="M92 147v1151q0 160 160 160h362q226 0 372 -130q153 -135 153 -359q0 -157 -83.5 -277t-230.5 -174q-95 -35 -198 -35h-228v-336q0 -71 -41.5 -115t-111.5 -44q-71 0 -112.5 44t-41.5 115zM399 754h209q96 0 153.5 60.5t57.5 156.5t-58 156.5t-153 60.5h-209v-434z" />
<glyph unicode="Q" horiz-adv-x="1479" d="M35 729q0 324 196 539t508 215q309 0 511 -225q194 -216 194 -529q0 -276 -137 -473l116 -100q72 -62 72 -125q0 -53 -43.5 -91t-97.5 -38q-60 0 -137 65l-117 99q-160 -91 -361 -91q-314 0 -514 226q-190 214 -190 528zM354 729q0 -198 97 -328q106 -143 288 -143 q60 0 131 14l-73 72q-39 38 -39 82q0 62 39 104.5t100 42.5q37 0 78 -26l100 -80q49 106 49 262q0 194 -96 326q-105 145 -289 145q-186 0 -293 -149q-92 -129 -92 -322z" />
<glyph unicode="R" horiz-adv-x="1139" d="M92 147v1151q0 160 158 160h360q510 0 510 -463q0 -162 -111 -266q-101 -94 -268 -121l349 -372q40 -43 40 -91q0 -64 -45 -110.5t-108 -46.5q-75 0 -119 53l-455 551h-4v-445q0 -71 -41.5 -115t-111.5 -44q-71 0 -112.5 44t-41.5 115zM399 813h211q88 0 139.5 48.5 t51.5 133.5q0 181 -191 181h-211v-363z" />
<glyph unicode="S" horiz-adv-x="1100" d="M39 205q0 62 38 103.5t99 41.5q48 0 158 -39q115 -41 186 -41q89 0 146 42q63 48 63 134q0 100 -176 152q-57 15 -170 47q-84 26 -160 68q-178 99 -178 305q0 210 151 341q144 124 357 124q227 0 354 -105q47 -39 47 -100q0 -65 -36 -107q-38 -45 -101 -45q-37 0 -96 21 l-94 33q-37 8 -82 8q-67 0 -114 -32q-54 -37 -54 -101q0 -81 178 -133q111 -32 168 -52q98 -34 162 -75q176 -113 176 -344q0 -217 -156 -350q-147 -126 -368 -126q-306 0 -443 113q-55 45 -55 117z" />
<glyph unicode="T" horiz-adv-x="983" d="M-25 1317q0 59 40.5 100t99.5 41h753q61 0 100.5 -40t39.5 -101q0 -66 -37.5 -103.5t-102.5 -37.5h-223v-1029q0 -71 -41.5 -115t-111.5 -44q-71 0 -112.5 44t-41.5 115v1029h-223q-64 0 -102 38.5t-38 102.5z" />
<glyph unicode="U" horiz-adv-x="1403" d="M80 580v731q0 159 153 159q154 0 154 -159v-715q0 -146 84 -240q87 -98 231 -98q138 0 228 101q86 97 86 237v715q0 159 153 159q154 0 154 -159v-731q0 -257 -181.5 -431t-439.5 -174q-261 0 -440 171q-182 174 -182 434z" />
<glyph unicode="V" horiz-adv-x="1212" d="M-8 1323q0 65 46 106t112 41q90 0 139 -100l317 -852l318 852q49 100 139 100q66 0 112 -41t46 -106q0 -38 -15 -76l-448 -1141q-46 -118 -152 -118q-105 0 -151 118l-449 1141q-14 36 -14 76z" />
<glyph unicode="W" horiz-adv-x="1860" d="M16 1335q0 59 43 97t103 38q135 0 164 -147l174 -870h4l266 897q36 120 160 120t160 -120l266 -897h4l174 870q29 147 164 147q59 0 102 -38t43 -97q0 -35 -8 -69l-260 -1119q-37 -159 -203 -159q-158 0 -203 149l-237 791h-4l-238 -791q-45 -149 -203 -149 q-165 0 -202 159l-260 1119q-9 39 -9 69z" />
<glyph unicode="X" horiz-adv-x="1253" d="M8 131q0 58 35 105l406 544l-332 451q-33 45 -33 90q0 68 44 108.5t112 40.5q80 0 133 -75l254 -361l254 361q53 75 133 75q69 0 112 -40t43 -109q0 -47 -32 -90l-332 -451l405 -544q35 -47 35 -105q0 -67 -43.5 -105t-111.5 -38q-79 0 -127 67l-336 467l-336 -467 q-48 -67 -127 -67q-66 0 -111 39t-45 104z" />
<glyph unicode="Y" horiz-adv-x="1098" d="M-20 1321q0 61 42 105t105 44q85 0 127 -61l295 -428l295 428q42 61 127 61q64 0 105.5 -42.5t41.5 -106.5q0 -53 -28 -92l-388 -545v-547q0 -149 -153 -149q-154 0 -154 149v547l-387 545q-28 39 -28 92z" />
<glyph unicode="Z" horiz-adv-x="1214" d="M45 147q0 62 41 119l659 922h-538q-144 0 -144 131q0 60 42 99.5t102 39.5h749q73 0 120 -36q52 -40 52 -111q0 -68 -45 -131l-655 -910h594q147 0 147 -135q0 -57 -44.5 -96t-102.5 -39h-805q-73 0 -120 36q-52 40 -52 111z" />
<glyph unicode="[" horiz-adv-x="569" d="M90 -168v1503q0 148 150 148h204q109 0 109 -117t-109 -117h-96v-1331h96q109 0 109 -117q0 -116 -109 -116h-204q-66 0 -108 40t-42 107z" />
<glyph unicode="\" horiz-adv-x="834" d="M16 1370q0 49 35.5 81t85.5 32q82 0 115 -76l547 -1262q18 -42 18 -57q0 -48 -37 -80.5t-86 -32.5q-79 0 -112 76l-549 1262q-17 39 -17 57z" />
<glyph unicode="]" horiz-adv-x="569" d="M16 -199q0 117 109 117h96v1331h-96q-109 0 -109 117t109 117h205q149 0 149 -148v-1503q0 -67 -41.5 -107t-107.5 -40h-205q-109 0 -109 116z" />
<glyph unicode="^" horiz-adv-x="1229" d="M150 727q0 35 26 82l330 600q34 61 108 61q75 0 109 -61l330 -600q26 -47 26 -82q0 -82 -104 -82q-72 0 -105 45l-256 473l-256 -473q-32 -45 -104 -45q-104 0 -104 82z" />
<glyph unicode="_" horiz-adv-x="1024" d="M-59 -205q0 51 59 51h1024q59 0 59 -51t-59 -51h-1024q-59 0 -59 51z" />
<glyph unicode="`" horiz-adv-x="455" d="M-25 1456q0 44 34 85.5t77 41.5q30 0 78 -20l258 -107q57 -24 57 -82q0 -53 -28.5 -101t-79.5 -48h-21q-10 0 -61 20l-230 90q-84 33 -84 121z" />
<glyph unicode="a" d="M41 543q0 225 129 391q139 180 358 180q185 0 281 -135q6 53 46.5 88t94.5 35q93 0 125 -68q17 -36 17 -125v-729q0 -132 -60 -172q-30 -20 -82 -20q-110 0 -141 125q-115 -138 -281 -138q-159 0 -280 94q-116 90 -170 244q-37 106 -37 230zM336 543q0 -120 57 -203 q64 -94 176 -94q108 0 172 98q56 86 56 199q0 193 -127 274q-42 27 -101 27q-113 0 -178 -99q-55 -84 -55 -202z" />
<glyph unicode="b" d="M84 152v1261q0 68 40 116t107 48q70 0 109 -46.5t39 -117.5v-401q119 102 280 102q227 0 359 -186q117 -165 117 -398q0 -223 -131 -383q-141 -172 -355 -172q-188 0 -270 136q-29 -123 -148 -123q-67 0 -107 48t-40 116zM379 553q0 -120 54 -206q63 -101 177 -101 q109 0 174 98q56 84 56 199q0 110 -58 200q-65 101 -172 101q-111 0 -176 -94q-55 -80 -55 -197z" />
<glyph unicode="c" horiz-adv-x="948" d="M41 543q0 232 146 398q153 173 382 173q215 0 322 -96q39 -35 39 -90q0 -53 -31.5 -97.5t-81.5 -44.5q-37 0 -111.5 29t-121.5 29q-121 0 -189 -94q-59 -81 -59 -207q0 -120 63 -203q71 -94 185 -94q50 0 126.5 30.5t92.5 30.5q54 0 90.5 -37.5t36.5 -91.5 q0 -102 -139 -158q-111 -45 -222 -45q-235 0 -385 168q-143 162 -143 400z" />
<glyph unicode="d" d="M41 530q0 170 63 306q69 148 205 227q88 51 207 51q162 0 281 -102v401q0 68 40 116t107 48q70 0 109 -46.5t39 -117.5v-1261q0 -71 -38 -116q-40 -48 -110 -48q-119 0 -147 123q-82 -136 -271 -136q-213 0 -354 175q-131 163 -131 380zM336 543q0 -115 56 -200 q64 -97 173 -97q115 0 178 100q54 85 54 207q0 116 -57 198q-64 93 -175 93q-109 0 -174 -101q-55 -85 -55 -200z" />
<glyph unicode="e" horiz-adv-x="1100" d="M20 543q0 233 147 399q152 172 382 172q165 0 300 -97q131 -95 193 -251q37 -93 37 -188q0 -132 -129 -132h-628q14 -102 93 -157.5t185 -55.5q68 0 141 33q25 13 129 68q34 18 64 18q48 0 84.5 -39t36.5 -88q0 -113 -193 -189q-155 -61 -289 -61q-245 0 -399 161 t-154 407zM315 643h469q-12 103 -73 164t-162 61q-98 0 -160.5 -63t-73.5 -162z" />
<glyph unicode="f" horiz-adv-x="606" d="M-43 961q0 55 37 92t92 37h66v151q0 152 78 241q82 95 231 95q205 0 205 -133q0 -125 -121 -125q-59 0 -79 -24t-20 -85v-120h93q149 0 149 -129q0 -130 -149 -130h-93v-679q0 -71 -37 -116q-40 -48 -110 -48t-110 48q-37 44 -37 116v679h-66q-129 0 -129 130z" />
<glyph unicode="g" d="M41 541q0 163 72 303q78 151 213 223q89 47 200 47q189 0 271 -135q28 123 147 123q70 0 109 -46.5t39 -117.5v-852q0 -259 -156 -399q-149 -133 -412 -133q-131 0 -278 49q-187 62 -187 172q0 43 38.5 86t80.5 43q38 0 164 -46t205 -46q114 0 180 59q70 62 70 174v70h-4 q-95 -140 -297 -140q-217 0 -342 175q-113 159 -113 391zM336 547q0 -122 53 -205q61 -96 176 -96q112 0 176 93q56 82 56 198q0 118 -56 206q-64 101 -176 101q-108 0 -174 -99q-55 -83 -55 -198z" />
<glyph unicode="h" horiz-adv-x="1139" d="M84 152v1261q0 68 40 116t107 48q70 0 109 -46.5t39 -117.5v-401h4q84 102 268 102t294 -106.5t110 -290.5v-565q0 -71 -38 -116q-40 -48 -110 -48q-67 0 -107 48t-40 116v514q0 92 -51 147t-142 55q-89 0 -138.5 -56t-49.5 -146v-514q0 -71 -38 -116q-40 -48 -110 -48 q-67 0 -107 48t-40 116z" />
<glyph unicode="i" horiz-adv-x="455" d="M61 1382q0 65 50 113.5t116 48.5q68 0 117 -47t49 -115q0 -70 -48.5 -120t-117.5 -50q-67 0 -116.5 51t-49.5 119zM80 152v786q0 68 40 116t107 48q70 0 109 -46.5t39 -117.5v-786q0 -71 -38 -116q-40 -48 -110 -48q-67 0 -107 48t-40 116z" />
<glyph unicode="j" horiz-adv-x="455" d="M61 1382q0 65 50 113.5t116 48.5q68 0 117 -47t49 -115q0 -70 -48.5 -120t-117.5 -50q-67 0 -116.5 51t-49.5 119zM80 -283v1221q0 68 40 116t107 48q70 0 109 -46.5t39 -117.5v-1221q0 -70 -38 -115q-41 -48 -110 -48q-67 0 -108 49q-39 46 -39 114z" />
<glyph unicode="k" horiz-adv-x="1024" d="M84 152v1261q0 68 40 116t107 48q70 0 109 -46.5t39 -117.5v-688l323 313q66 64 134 64q55 0 90 -39t35 -94q0 -65 -58 -117l-262 -234l346 -405q37 -43 37 -98q0 -58 -40.5 -99t-98.5 -41q-68 0 -142 91l-360 444h-4v-358q0 -71 -38 -116q-40 -48 -110 -48 q-67 0 -107 48t-40 116z" />
<glyph unicode="l" horiz-adv-x="455" d="M80 152v1261q0 68 40 116t107 48q70 0 109 -46.5t39 -117.5v-1261q0 -71 -38 -116q-40 -48 -110 -48q-67 0 -107 48t-40 116z" />
<glyph unicode="m" horiz-adv-x="1745" d="M84 152v786q0 68 40 116t107 48q119 0 136 -111q114 123 274 123q186 0 305 -149q129 149 311 149q188 0 296 -104.5t108 -292.5v-565q0 -71 -38 -116q-40 -48 -110 -48q-67 0 -107 48t-40 116v514q0 87 -42 141q-46 61 -130 61q-85 0 -132 -60q-42 -54 -42 -142v-514 q0 -71 -38 -116q-40 -48 -110 -48q-69 0 -109 48q-38 45 -38 116v514q0 87 -42 141q-46 61 -130 61q-174 0 -174 -202v-514q0 -71 -38 -116q-40 -48 -110 -48q-67 0 -107 48t-40 116z" />
<glyph unicode="n" horiz-adv-x="1139" d="M84 152v786q0 68 40 116t107 48q119 0 136 -109q88 121 284 121q184 0 294 -106.5t110 -290.5v-565q0 -71 -38 -116q-40 -48 -110 -48q-67 0 -107 48t-40 116v514q0 92 -51 147t-142 55q-89 0 -138.5 -56t-49.5 -146v-514q0 -71 -38 -116q-40 -48 -110 -48q-67 0 -107 48 t-40 116z" />
<glyph unicode="o" horiz-adv-x="1139" d="M41 543q0 232 146 398q153 173 382 173q231 0 383 -172q146 -166 146 -399q0 -237 -144 -399q-150 -169 -385 -169t-385 168q-143 162 -143 400zM336 543q0 -120 57 -203q64 -94 176 -94q111 0 176 96q58 86 58 201q0 194 -127 274q-43 27 -107 27q-113 0 -178 -99 q-55 -84 -55 -202z" />
<glyph unicode="p" d="M84 -283v1221q0 68 40 116t107 48q119 0 148 -123q82 135 280 135q227 0 359 -186q117 -165 117 -398q0 -223 -131 -383q-141 -172 -355 -172q-151 0 -270 103v-361q0 -70 -38 -115q-41 -48 -110 -48q-67 0 -108 49q-39 46 -39 114zM379 553q0 -120 54 -206 q63 -101 177 -101q109 0 174 98q56 84 56 199q0 110 -58 200q-65 101 -172 101q-111 0 -176 -94q-55 -80 -55 -197z" />
<glyph unicode="q" d="M41 530q0 170 63 306q69 148 205 227q88 51 207 51q199 0 281 -135q28 123 147 123q70 0 109 -46.5t39 -117.5v-1221q0 -70 -38 -115q-41 -48 -110 -48q-67 0 -108 49q-39 46 -39 114v361q-119 -103 -271 -103q-213 0 -354 175q-131 163 -131 380zM336 543 q0 -115 56 -200q64 -97 173 -97q115 0 178 100q54 85 54 207q0 116 -57 198q-64 93 -175 93q-109 0 -174 -101q-55 -85 -55 -200z" />
<glyph unicode="r" horiz-adv-x="682" d="M80 152v802q0 66 42.5 107t108.5 41q144 0 144 -123h4q82 123 207 123q66 0 106 -47q37 -44 37 -111q0 -61 -61 -96q-39 -15 -115 -47q-81 -35 -123 -72q-55 -49 -55 -125v-452q0 -71 -38 -116q-40 -48 -110 -48q-67 0 -107 48t-40 116z" />
<glyph unicode="s" horiz-adv-x="872" d="M20 203q0 51 38 91t89 40q46 0 110.5 -33t104 -50.5t91.5 -17.5q116 0 116 84q0 50 -133 103l-123 49q-256 102 -256 301q0 163 123 258q112 86 277 86q130 0 239 -51q129 -60 129 -162q0 -55 -32.5 -93t-87.5 -38q-23 0 -118 43t-147 43q-100 0 -100 -82q0 -53 133 -104 l123 -47q256 -98 256 -301q0 -165 -131 -261q-117 -86 -289 -86q-140 0 -268 64q-144 72 -144 164z" />
<glyph unicode="t" horiz-adv-x="606" d="M-39 961q0 55 37 92t92 37h66v176q0 70 38 115q41 49 109 49q69 0 110 -48q38 -46 38 -116v-176h84q141 0 141 -129q0 -130 -141 -130h-84v-679q0 -71 -38 -116q-40 -48 -110 -48t-110 48q-37 45 -37 116v679h-66q-129 0 -129 130z" />
<glyph unicode="u" horiz-adv-x="1139" d="M84 406v532q0 68 40 116t107 48q70 0 109 -46.5t39 -117.5v-526q0 -85 52.5 -138t137.5 -53t138 53t53 138v526q0 68 40 116t107 48q70 0 109 -46.5t39 -117.5v-532q0 -213 -140 -326q-129 -105 -346 -105q-218 0 -346 105q-139 113 -139 326z" />
<glyph unicode="v" horiz-adv-x="946" d="M-2 958q0 65 44 104.5t110 39.5q97 0 131 -105l188 -581h4l189 581q34 105 131 105q67 0 110 -39t43 -105q0 -40 -18 -86l-297 -761q-26 -66 -58 -93q-35 -30 -102 -30q-66 0 -102 30q-32 27 -58 93l-297 761q-18 46 -18 86z" />
<glyph unicode="w" horiz-adv-x="1593" d="M14 983q0 57 47 90q42 29 101 29q104 0 139 -117l170 -563h4l172 551q40 129 150 129q109 0 149 -129l172 -551h4l170 563q35 117 140 117q66 0 106.5 -39t40.5 -105q0 -28 -29 -110l-252 -711q-53 -149 -178 -149q-126 0 -170 137l-151 475h-4l-152 -475 q-44 -137 -170 -137q-125 0 -178 149l-250 707q-31 88 -31 139z" />
<glyph unicode="x" horiz-adv-x="1024" d="M0 131q0 53 41 100l299 340l-250 281q-45 51 -45 106q0 58 46.5 101t105.5 43q61 0 108 -58l207 -258l207 258q47 58 108 58q59 0 105.5 -43t46.5 -101q0 -55 -45 -106l-250 -281l299 -340q41 -47 41 -100q0 -66 -39.5 -104.5t-105.5 -38.5q-70 0 -123 65l-244 299 l-244 -299q-53 -65 -123 -65q-64 0 -104.5 39.5t-40.5 103.5z" />
<glyph unicode="y" horiz-adv-x="985" d="M-4 975q0 51 43.5 89t95.5 38q110 0 148 -105l202 -555l217 555q41 105 148 105q54 0 96.5 -37t42.5 -90q0 -41 -14 -76l-494 -1229q-47 -116 -139 -116q-61 0 -105 32q-49 36 -49 95q0 39 19 86l129 319l-326 813q-14 35 -14 76z" />
<glyph unicode="z" horiz-adv-x="985" d="M23 100q0 43 26 80l463 651h-342q-60 0 -96.5 35t-36.5 95q0 59 37 94t96 35h670q96 0 96 -93q0 -45 -31 -88l-465 -651h389q60 0 97 -34.5t37 -94.5t-37 -94.5t-97 -34.5h-686q-120 0 -120 100z" />
<glyph unicode="{" horiz-adv-x="682" d="M-20 584q0 74 51 89q47 11 94 21q51 25 51 123v397q0 269 273 269h126q93 0 93 -92q0 -93 -93 -93h-51q-90 0 -90 -118v-387q0 -117 -84 -170q-50 -31 -137 -37v-4q144 -11 197 -97q24 -39 24 -110v-387q0 -119 90 -119h51q93 0 93 -92t-93 -92h-126q-273 0 -273 268v397 q0 98 -51 123q-47 10 -94 21q-51 15 -51 90z" />
<glyph unicode="|" horiz-adv-x="455" d="M104 98v1356q0 123 123 123t123 -123v-1356q0 -123 -123 -123t-123 123z" />
<glyph unicode="}" horiz-adv-x="682" d="M14 -223q0 92 92 92h52q90 0 90 119v387q0 120 84 172q45 28 137 35v4q-143 10 -197 98q-24 39 -24 109v387q0 118 -90 118h-52q-92 0 -92 93q0 92 92 92h127q273 0 273 -269v-397q0 -98 51 -123q47 -10 94 -21q51 -15 51 -89q0 -75 -51 -90q-47 -11 -94 -21 q-51 -25 -51 -123v-397q0 -268 -273 -268h-127q-92 0 -92 92z" />
<glyph unicode="~" horiz-adv-x="1229" d="M84 440q0 104 82 183q91 88 229 88q80 0 234 -70t200 -70q52 0 95 37q30 28 60 57q37 31 73 31q88 0 88 -100q0 -105 -80 -182q-91 -88 -231 -88q-82 0 -235.5 69.5t-199.5 69.5q-45 0 -93 -37q-38 -34 -77 -68q-23 -20 -57 -20q-88 0 -88 100z" />
<glyph unicode="&#xa2;" horiz-adv-x="948" d="M41 551q0 210 119 363q123 159 327 192v57q0 46 7 66q11 31 49 31q39 0 49 -31q6 -18 6 -66v-49q194 0 297 -100q35 -34 35 -86q0 -54 -29 -97q-33 -49 -84 -49q-39 0 -109 29q-73 29 -110 31v-596q33 2 106.5 31.5t98.5 29.5q54 0 90.5 -37.5t36.5 -91.5 q0 -96 -121 -153q-91 -43 -211 -50v-47q0 -96 -55 -96q-56 0 -56 96v56q-212 28 -333 193q-113 154 -113 374zM336 543q0 -87 37 -159q40 -81 114 -114v551q-151 -63 -151 -278z" />
<glyph unicode="&#xa3;" horiz-adv-x="1251" d="M33 727q0 66 40.5 103.5t106.5 37.5h43q-53 101 -53 217q0 136 94 238q85 93 223 133q92 27 199 27q221 0 367 -101q151 -105 151 -254q0 -71 -44 -113t-116 -42q-46 0 -83 35q-9 9 -62 73q-88 107 -201 107q-78 0 -134 -39q-62 -44 -62 -119q0 -63 26 -108l31 -54h311 q67 0 107.5 -37.5t40.5 -103.5q0 -64 -41.5 -102.5t-106.5 -38.5h-264q0 -160 -104 -303h569q148 0 148 -142q0 -64 -41.5 -102.5t-106.5 -38.5h-803q-159 0 -159 160q0 26 34 78q19 23 56 71q88 122 88 277h-107q-65 0 -106 38.5t-41 102.5z" />
<glyph unicode="&#xa5;" d="M20 1321q0 63 42.5 106t105.5 43q85 0 127 -61l293 -428l293 428q42 61 127 61q64 0 105.5 -42.5t41.5 -106.5q0 -52 -29 -92l-260 -361h166q39 0 70 -22q28 -25 28 -64t-29.5 -62.5t-68.5 -23.5h-291v-139h291q39 0 70 -22q28 -25 28 -64t-29.5 -62.5t-68.5 -23.5h-291 v-248q0 -149 -153 -149q-154 0 -154 149v248h-291q-39 0 -67 25q-31 22 -31 61t29 62.5t69 23.5h291v139h-291q-39 0 -67 25q-31 22 -31 61t29 62.5t69 23.5h166l-260 361q-29 40 -29 92z" />
<glyph unicode="&#xa8;" horiz-adv-x="948" d="M92 154v1126q0 178 160 178h508q63 0 104 -39t41 -102q0 -61 -42 -101t-103 -40h-361v-299h336q68 0 109 -37t41 -105q0 -63 -43 -102t-107 -39h-336v-311h379q64 0 105 -39t41 -103q0 -62 -42 -101.5t-104 -39.5h-528q-68 0 -113 43t-45 111zM102 1714q0 62 43 105 t105 43t104.5 -43t42.5 -105q0 -61 -43 -104t-104 -43q-62 0 -105 42.5t-43 104.5zM553 1714q0 62 42.5 105t104.5 43t105 -43t43 -105t-43 -104.5t-105 -42.5q-61 0 -104 43t-43 104z" />
<glyph unicode="&#xa9;" horiz-adv-x="1638" d="M66 729q0 314 219.5 534t533.5 220q316 0 535 -221t219 -533q0 -313 -220.5 -533.5t-533.5 -220.5q-311 0 -532 224t-221 530zM250 729q0 -237 166 -403t403 -166t403.5 166t166.5 403q0 238 -166 403.5t-404 165.5q-237 0 -403 -166t-166 -403zM418 729q0 188 112 305 t295 117q148 0 258 -88q97 -78 97 -156q0 -55 -14 -76q-16 -24 -68 -34q-49 0 -72 24q-14 15 -39 68q-51 78 -162 78q-186 0 -186 -238q0 -237 186 -237q111 0 162 77q24 53 39 68q24 25 72 25q51 -11 66.5 -34t15.5 -77q0 -78 -97 -156q-110 -88 -258 -88q-184 0 -297 120 q-110 116 -110 302z" />
<glyph unicode="&#xab;" horiz-adv-x="1024" d="M76 584q0 45 49 114l199 281q30 35 88 35q54 0 86 -31t32 -82q0 -44 -22 -78l-162 -248l162 -243q22 -33 22 -70q0 -57 -32.5 -93t-89.5 -36q-70 0 -103 51l-211 326q-18 28 -18 74zM494 584q0 44 49 114l198 281q31 35 88 35q54 0 86.5 -31.5t32.5 -81.5q0 -44 -22 -78 l-162 -248l162 -243q22 -33 22 -70q0 -56 -33.5 -92.5t-89.5 -36.5q-69 0 -102 51l-211 326q-18 28 -18 74z" />
<glyph unicode="&#xad;" horiz-adv-x="797" d="M63 592q0 55 31.5 93t85.5 38h436q57 0 89 -39q28 -34 28 -92q0 -54 -31.5 -90.5t-85.5 -36.5h-436q-51 0 -86 41q-31 37 -31 86z" />
<glyph unicode="&#xae;" horiz-adv-x="1638" d="M66 729q0 314 219.5 534t533.5 220q316 0 535 -221t219 -533q0 -313 -220.5 -533.5t-533.5 -220.5q-311 0 -532 224t-221 530zM250 729q0 -237 166 -403t403 -166t403.5 166t166.5 403q0 238 -166 403.5t-404 165.5q-237 0 -403 -166t-166 -403zM516 406v632q0 86 94 86 h232q305 0 305 -239q0 -217 -205 -226l145 -237q13 -21 13 -43q0 -72 -96 -72q-42 0 -70 31q-16 18 -43 68l-129 241h-62v-241q0 -99 -92 -99t-92 99zM700 795h154q109 0 109 90q0 92 -109 92h-154v-182z" />
<glyph unicode="&#xb4;" horiz-adv-x="455" d="M-25 1374q0 53 58 82l16 8l242 99q49 20 78 20q44 0 77 -41t33 -86q0 -88 -84 -121l-229 -90q-51 -20 -60 -20h-22q-48 0 -81 52q-28 46 -28 97z" />
<glyph unicode="&#xb8;" horiz-adv-x="1100" d="M20 543q0 233 147 399q152 172 382 172q165 0 300 -97q131 -95 193 -251q37 -93 37 -188q0 -132 -129 -132h-628q14 -102 93 -157.5t185 -55.5q68 0 141 33q25 13 129 68q34 18 64 18q48 0 84.5 -39t36.5 -88q0 -113 -193 -189q-155 -61 -289 -61q-245 0 -399 161 t-154 407zM178 1382q0 62 43 105t105 43t104.5 -43t42.5 -105q0 -61 -43 -104t-104 -43q-62 0 -105 42.5t-43 104.5zM315 643h469q-12 103 -73 164t-162 61q-98 0 -160.5 -63t-73.5 -162zM629 1382q0 62 42.5 105t104.5 43t105 -43t43 -105t-43 -104.5t-105 -42.5 q-61 0 -104 43t-43 104z" />
<glyph unicode="&#xbb;" horiz-adv-x="1024" d="M76 246q0 44 22 78l162 251l-162 240q-22 33 -22 70q0 55 34.5 92t88.5 37q69 0 102 -51l211 -326q18 -28 18 -74q0 -44 -49 -114l-198 -281q-31 -35 -88 -35q-49 0 -84 33t-35 80zM494 246q0 44 22 78l162 251l-162 240q-22 33 -22 70q0 56 33.5 92.5t88.5 36.5 q70 0 103 -51l211 -326q18 -28 18 -74q0 -45 -49 -114l-199 -281q-30 -35 -88 -35q-49 0 -83.5 32.5t-34.5 80.5z" />
<glyph unicode="&#x2c6;" horiz-adv-x="455" d="M-84 1352q0 87 94 125l217 88l217 -88q95 -39 95 -125q0 -51 -37.5 -91t-87.5 -40q-25 0 -107 36l-80 35l-80 -35q-82 -36 -106 -36q-48 0 -86.5 41t-38.5 90z" />
<glyph unicode="&#x2dc;" horiz-adv-x="455" d="M-113 1346q0 82 56 131t139 49q52 0 124.5 -25.5t104.5 -25.5q24 0 75.5 29.5t84.5 29.5q47 0 71.5 -32.5t24.5 -82.5q0 -77 -63 -129q-59 -49 -137 -49q-18 0 -123 27l-62 16q-31 8 -47 8q-19 0 -96 -41q-22 -12 -49 -12q-37 0 -70 35t-33 72z" />
<glyph unicode="&#x401;" horiz-adv-x="948" d="M92 154v1126q0 178 160 178h508q63 0 104 -39t41 -102q0 -61 -42 -101t-103 -40h-361v-299h336q68 0 109 -37t41 -105q0 -63 -43 -102t-107 -39h-336v-311h379q64 0 105 -39t41 -103q0 -62 -42 -101.5t-104 -39.5h-528q-68 0 -113 43t-45 111zM102 1714q0 62 43 105 t105 43t104.5 -43t42.5 -105q0 -61 -43 -104t-104 -43q-62 0 -105 42.5t-43 104.5zM553 1714q0 62 42.5 105t104.5 43t105 -43t43 -105t-43 -104.5t-105 -42.5q-61 0 -104 43t-43 104z" />
<glyph unicode="&#x410;" horiz-adv-x="1323" d="M37 131q0 10 14 68l412 1114q63 170 219 170q158 0 219 -170l402 -1114q16 -44 16 -76q0 -59 -42 -97t-99 -38q-116 0 -150 106l-61 193h-570l-61 -191q-34 -108 -148 -108q-62 0 -106.5 41t-44.5 102zM485 569h389l-190 594h-4z" />
<glyph unicode="&#x411;" horiz-adv-x="1188" d="M111 160v1151q0 52 43 102q39 45 114 45h637q64 0 100.5 -38.5t36.5 -102.5q0 -63 -37.5 -102t-99.5 -39l-487 -2v-199h227q221 0 364 -132q148 -135 148 -354q0 -222 -153 -358q-147 -131 -371 -131h-363q-74 0 -116.5 43t-42.5 117zM418 270h209q94 0 152.5 61 t58.5 156t-58 156.5t-153 61.5h-209v-435z" />
<glyph unicode="&#x412;" d="M92 156v1149q0 71 45 112t117 41h393q256 0 354 -211q31 -67 31 -149q0 -211 -190 -301v-4q135 -21 223 -117t88 -232q0 -213 -133 -331q-126 -113 -342 -113h-422q-71 0 -117.5 43t-46.5 113zM399 270h242q86 0 139.5 47t53.5 132q0 161 -218 161h-217v-340zM399 881 h160q76 0 121 43t45 118q0 146 -166 146h-160v-307z" />
<glyph unicode="&#x413;" horiz-adv-x="909" d="M92 147v1151q0 70 45 115t115 45h524q64 0 100.5 -38.5t36.5 -102.5q0 -62 -37.5 -101.5t-99.5 -39.5h-377v-1029q0 -71 -41.5 -115t-111.5 -44q-71 0 -112.5 44t-41.5 115z" />
<glyph unicode="&#x414;" horiz-adv-x="1352" d="M2 125q0 108 86 145q7 7 59 19q105 25 105 272v8l-4 742q0 72 40.5 115.5t112.5 43.5h664q154 0 154 -159v-1026q143 -9 143 -160v-406q0 -71 -41.5 -115t-112.5 -44q-70 0 -111.5 44t-41.5 115v283h-746v-283q0 -71 -41.5 -115t-111.5 -44q-71 0 -112.5 44t-41.5 115 v406zM506 285h405v903h-356l-2 -526q0 -230 -47 -377z" />
<glyph unicode="&#x415;" horiz-adv-x="948" d="M92 154v1126q0 178 160 178h508q63 0 104 -39t41 -102q0 -61 -42 -101t-103 -40h-361v-299h336q68 0 109 -37t41 -105q0 -63 -43 -102t-107 -39h-336v-311h379q64 0 105 -39t41 -103q0 -62 -42 -101.5t-104 -39.5h-528q-68 0 -113 43t-45 111z" />
<glyph unicode="&#x416;" horiz-adv-x="1993" d="M-4 129q0 -67 49 -106q44 -35 113 -35q66 0 155 96l531 573v-522q0 -66 43 -106.5t110 -40.5q65 0 109.5 41t44.5 106v522l530 -573q89 -96 156 -96q70 0 113 35q47 38 47 106q0 66 -86 156l-473 493l387 381q100 98 100 164q0 65 -44 106t-107 41q-65 0 -119 -57 l-504 -536v442q0 69 -42 110t-112 41q-69 0 -111 -41t-42 -110v-442l-504 536q-54 57 -119 57t-108 -41.5t-43 -105.5q0 -66 100 -164l387 -381l-473 -493q-88 -92 -88 -156z" />
<glyph unicode="&#x417;" horiz-adv-x="1110" d="M66 360q0 59 50 100q46 38 107 38q44 0 82 -41q9 -10 53 -78q78 -121 203 -121q82 0 137.5 55t55.5 136q0 122 -90 157q-27 11 -84 19q-60 9 -84 16q-90 27 -90 125q0 68 40 100q29 23 105 43.5t106 46.5q39 34 39 107q0 64 -41 100.5t-106 36.5q-103 0 -174 -100 q-43 -60 -53 -70q-32 -31 -80 -31q-61 0 -98 46q-35 43 -35 106q0 139 158 241q141 91 288 91q206 0 330 -127q106 -108 106 -248q0 -207 -168 -313q115 -53 182.5 -149.5t67.5 -217.5q0 -140 -91 -255q-86 -109 -222 -161q-97 -37 -203 -37q-206 0 -358 134 q-133 117 -133 251z" />
<glyph unicode="&#x418;" horiz-adv-x="1403" d="M80 147q0 -71 41.5 -115t111.5 -44q31 0 70.5 21t58.5 46l650 856h4v-764q0 -71 41.5 -115t111.5 -44q71 0 112.5 44t41.5 115v1164q0 159 -154 159q-79 0 -129 -67l-649 -866h-4v774q0 159 -154 159q-153 0 -153 -159v-1164z" />
<glyph unicode="&#x419;" horiz-adv-x="1403" d="M80 147q0 -71 41.5 -115t111.5 -44q31 0 70.5 21t58.5 46l650 856h4v-764q0 -71 41.5 -115t111.5 -44q71 0 112.5 44t41.5 115v1164q0 159 -154 159q-79 0 -129 -67l-649 -866h-4v774q0 159 -154 159q-153 0 -153 -159v-1164zM328 1755q0 -144 112 -230q101 -77 250 -79 h17q143 0 245 74q121 88 121 235q0 62 -42.5 105t-104.5 43t-105 -43t-43 -105q-6 -39 -69 -39h-4q-82 1 -82 39q0 62 -43 105t-105 43t-104.5 -43t-42.5 -105z" />
<glyph unicode="&#x41a;" horiz-adv-x="1219" d="M92 135v1184q0 69 42 110t112 41q69 0 111 -41t42 -110v-442l504 536q54 57 119 57q66 0 109 -41t43 -106t-101 -164l-387 -381l473 -493q86 -90 86 -156q0 -141 -160 -141q-66 0 -155 96l-531 573v-522q0 -66 -43 -106.5t-110 -40.5t-110.5 40.5t-43.5 106.5z" />
<glyph unicode="&#x41b;" horiz-adv-x="1286" d="M-4 139v13q4 66 47 108q16 15 31 21q14 2 41 8q104 23 104 272v8l-4 742q0 73 41 116t113 43h663q154 0 154 -159v-1164q0 -71 -41.5 -115t-112.5 -44q-70 0 -111.5 44t-41.5 115v1041h-357l-2 -526v-29q0 -216 -55 -373q-95 -270 -316 -270h-2q-74 0 -116 51 q-35 43 -35 98z" />
<glyph unicode="&#x41c;" horiz-adv-x="1782" d="M49 135v17q0 6 2 18l170 1143q10 66 72 113q60 44 129 44q70 0 127 -40t78 -107l262 -811h4l262 811q21 67 78 107t127 40q71 0 129 -43q62 -46 72 -114l170 -1143q2 -13 2 -18v-17q0 -66 -41 -106.5t-107 -40.5q-143 0 -160 143l-100 834h-4l-266 -859 q-37 -118 -164 -118t-164 118l-266 859h-4l-101 -834q-17 -143 -159 -143q-66 0 -107 40.5t-41 106.5z" />
<glyph unicode="&#x41d;" horiz-adv-x="1442" d="M92 147v1164q0 159 154 159q153 0 153 -159v-434h643v434q0 159 154 159t154 -159v-1164q0 -71 -41.5 -115t-112.5 -44t-112.5 44t-41.5 115v447h-643v-447q0 -71 -41.5 -115t-111.5 -44q-71 0 -112.5 44t-41.5 115z" />
<glyph unicode="&#x41e;" horiz-adv-x="1503" d="M68 729q0 324 196 539t508 215q309 0 511 -225q194 -216 194 -529q0 -318 -192 -532q-198 -222 -513 -222q-314 0 -514 226q-190 214 -190 528zM387 729q0 -199 96 -328q106 -143 289 -143q189 0 293 148q92 131 92 323q0 313 -217 432q-71 39 -168 39q-186 0 -293 -149 q-92 -129 -92 -322z" />
<glyph unicode="&#x41f;" horiz-adv-x="1376" d="M92 147v1164q0 159 154 159h889q153 0 153 -159v-1164q0 -71 -41.5 -115t-111.5 -44q-71 0 -112.5 44t-41.5 115v1041h-582v-1041q0 -71 -41.5 -115t-111.5 -44q-71 0 -112.5 44t-41.5 115z" />
<glyph unicode="&#x420;" horiz-adv-x="1155" d="M109 147v1151q0 74 42.5 117t116.5 43h363q231 0 375 -133q149 -137 149 -356q0 -156 -83.5 -276.5t-229.5 -174.5q-95 -35 -199 -35h-227v-336q0 -71 -41.5 -115t-112.5 -44t-112 45t-41 114zM416 754h209q95 0 153 60.5t58 156.5q0 95 -58.5 156t-152.5 61h-209v-434z " />
<glyph unicode="&#x421;" horiz-adv-x="1219" d="M51 729q0 321 190 533q198 221 515 221q266 0 393 -117q47 -43 47 -113q0 -57 -35.5 -97t-91.5 -40q-28 0 -134 36t-179 36q-188 0 -293 -146q-92 -128 -92 -319q0 -189 96 -315q105 -138 289 -138q76 0 184 43t141 43q93 0 127 -96q9 -25 9 -43q0 -129 -175 -194 q-128 -48 -286 -48q-314 0 -514 226q-191 216 -191 528z" />
<glyph unicode="&#x422;" horiz-adv-x="983" d="M-25 1317q0 59 40.5 100t99.5 41h753q61 0 100.5 -40t39.5 -101q0 -66 -37.5 -103.5t-102.5 -37.5h-223v-1029q0 -71 -41.5 -115t-111.5 -44q-71 0 -112.5 44t-41.5 115v1029h-223q-64 0 -102 38.5t-38 102.5z" />
<glyph unicode="&#x423;" horiz-adv-x="1192" d="M49 1317q0 10 2 26q7 56 47.5 93t96.5 37q10 0 22 -3q82 -10 119 -77l334 -609l278 605q39 84 144 84q53 0 92.5 -35t48.5 -88q2 -11 2 -29q0 -39 -14 -68l-287 -604q-148 -312 -174 -356q-133 -228 -260 -273q-62 -22 -131 -22q-183 0 -217 152q-2 16 -2 30q0 58 34 90 q51 47 90 47h9q36 -6 67 -6q113 0 158 123l-440 813q-19 35 -19 70z" />
<glyph unicode="&#x424;" horiz-adv-x="1786" d="M0 764q0 -158 83.5 -277.5t231.5 -173.5q93 -34 197 -34h227v-132q2 -14 13 -63q10 -45 53 -71q40 -25 88 -25q71 0 112.5 44t41.5 115v132h227q220 0 364 132q148 136 148 353q0 222 -153 358q-147 131 -371 131h-215v58q0 159 -154 159t-154 -159v-58h-215 q-226 0 -372 -130q-152 -136 -152 -359zM319 766q0 94 59 155.5t152 61.5h209v-434h-209q-93 0 -152 61.5t-59 155.5zM1047 549v434h208q96 0 153.5 -60.5t57.5 -156.5t-57.5 -156.5t-153.5 -60.5h-208z" />
<glyph unicode="&#x425;" horiz-adv-x="1253" d="M8 131q0 58 35 105l406 544l-332 451q-33 45 -33 90q0 68 44 108.5t112 40.5q80 0 133 -75l254 -361l254 361q53 75 133 75q69 0 112 -40t43 -109q0 -47 -32 -90l-332 -451l405 -544q35 -47 35 -105q0 -67 -43.5 -105t-111.5 -38q-79 0 -127 67l-336 467l-336 -467 q-48 -67 -127 -67q-66 0 -111 39t-45 104z" />
<glyph unicode="&#x426;" horiz-adv-x="1425" d="M92 162v1163q0 160 154 160q153 0 153 -160v-1040h582v1040q0 160 154 160q153 0 153 -160v-1040q144 -9 144 -160v-406q0 -71 -41.5 -115t-112.5 -44t-112.5 44t-41.5 115v283h-878q-71 0 -112.5 44t-41.5 116z" />
<glyph unicode="&#x427;" horiz-adv-x="1300" d="M72 1001v310q1 79 47 121q41 38 106 38q68 0 111 -40t43 -111v-262q0 -127 72 -177q60 -42 194 -42h115l139 -2v475q0 159 154 159q153 0 153 -159v-1164q0 -71 -41.5 -115t-111.5 -44q-71 0 -112.5 44t-41.5 115v406q-344 0 -344 -1t71 -2q-173 2 -268 34 q-286 96 -286 417z" />
<glyph unicode="&#x428;" horiz-adv-x="2062" d="M92 162v1163q0 160 154 160q153 0 153 -160v-1040h500v1040q0 160 154 160q153 0 153 -160v-1040h500v1040q0 160 154 160q153 0 153 -160v-1163q0 -71 -41 -115.5t-112 -44.5h-1614q-71 0 -112.5 44t-41.5 116z" />
<glyph unicode="&#x429;" horiz-adv-x="2126" d="M92 162v1163q0 160 154 160q153 0 153 -160v-1040h500v1040q0 160 154 160q153 0 153 -160v-1040h500v1040q0 160 154 160q153 0 153 -160l-2 -1040q143 -9 143 -160v-406q0 -72 -41 -115.5t-112 -43.5t-112.5 44t-41.5 115v283h-1601q-71 0 -112.5 44t-41.5 116z" />
<glyph unicode="&#x42a;" horiz-adv-x="1403" d="M-25 1317q0 -64 38 -102.5t102 -38.5h223v-1016q0 -160 160 -160h362q225 0 371 131q153 136 153 358q0 157 -83 278t-230 175q-90 33 -199 33h-227v323q0 160 -153 160h-377q-59 0 -99.5 -41t-40.5 -100zM645 270v435h209q96 0 153.5 -61t57.5 -157t-58 -156.5 t-153 -60.5h-209z" />
<glyph unicode="&#x42b;" horiz-adv-x="1630" d="M68 160q0 -74 42.5 -117t116.5 -43h363q225 0 371 131q153 136 153 358q0 157 -83 278t-230 175q-90 33 -199 33h-227v336q0 159 -154 159q-153 0 -153 -159v-1151zM375 270v435h209q95 0 153 -61.5t58 -156.5t-58.5 -156t-152.5 -61h-209zM1253 147v1164q0 71 42 115 t112 44q154 0 154 -159v-1164q0 -71 -41.5 -115t-112.5 -44q-68 0 -111 45t-43 114z" />
<glyph unicode="&#x42c;" horiz-adv-x="1188" d="M117 160q0 -74 42.5 -117t116.5 -43h363q225 0 371 131q153 136 153 358q0 157 -83 278t-230 175q-90 33 -199 33h-227v336q0 159 -154 159q-153 0 -153 -159v-1151zM424 270v435h209q95 0 153 -61.5t58 -156.5t-58.5 -156t-152.5 -61h-209z" />
<glyph unicode="&#x42d;" horiz-adv-x="1219" d="M33 217q0 54 40.5 96.5t94.5 42.5q33 0 141.5 -43t184.5 -43q144 0 245 92q97 88 127 232h-467q-64 0 -106.5 39t-42.5 102q0 66 41.5 104t107.5 38h461q-35 143 -126 224q-97 87 -240 87q-73 0 -179.5 -36t-134.5 -36q-56 0 -91.5 40t-35.5 97q0 119 166 183 q122 47 275 47q316 0 514 -221q190 -213 190 -533q0 -319 -191 -532q-198 -222 -513 -222q-279 0 -410 121q-51 47 -51 121z" />
<glyph unicode="&#x42e;" horiz-adv-x="2159" d="M92 147v1164q0 159 154 159q153 0 153 -159v-434h314q37 227 184 389q197 217 508 217q310 0 512 -228q192 -216 192 -526q0 -319 -191 -532q-198 -222 -513 -222q-274 0 -464.5 173t-229.5 446h-312v-447q0 -71 -41.5 -115t-111.5 -44q-71 0 -112.5 44t-41.5 115z M1020 729q0 -199 96 -328q106 -143 289 -143q189 0 293 148q92 131 92 323q0 313 -217 432q-71 39 -168 39q-186 0 -293 -149q-92 -129 -92 -322z" />
<glyph unicode="&#x42f;" horiz-adv-x="1139" d="M16 145q0 -64 45 -110.5t109 -46.5q75 0 119 53l454 551h5v-445q0 -72 41 -115.5t112 -43.5t112.5 44t41.5 115v1151q0 160 -158 160h-360q-510 0 -510 -463q0 -162 111 -266q101 -94 268 -121l-349 -372q-41 -44 -41 -91zM346 995q0 85 54 134q51 47 137 47h211v-363 h-211q-86 0 -138.5 48.5t-52.5 133.5z" />
<glyph unicode="&#x430;" horiz-adv-x="1225" d="M90 543q0 225 129 391q140 180 359 180q184 0 280 -135q6 53 46.5 88t94.5 35q93 0 125 -68q17 -36 17 -125v-729q0 -132 -60 -172q-30 -20 -82 -20q-110 0 -141 125q-115 -138 -280 -138q-160 0 -281 94q-116 90 -170 244q-37 106 -37 230zM385 543q0 -120 57 -203 q64 -94 176 -94q109 0 173 98q55 84 55 199q0 193 -127 274q-42 27 -101 27q-113 0 -178 -99q-55 -84 -55 -202z" />
<glyph unicode="&#x431;" horiz-adv-x="1188" d="M70 975q0 555 442 651q111 24 111 94q0 160 118 160q140 0 140 -201q0 -149 -80 -231q-50 -51 -348 -150q-154 -86 -154 -272q0 -16 2 -33q126 121 317 121q231 0 383 -172q146 -166 146 -399q0 -237 -144 -399q-150 -169 -385 -169t-385 170q-143 162 -143 398 q0 90 8 157q-28 131 -28 275zM385 543q0 -120 57 -203q64 -94 176 -94q114 0 179 96q55 82 55 201q0 194 -127 274q-43 27 -107 27q-112 0 -178 -99q-55 -83 -55 -202z" />
<glyph unicode="&#x432;" horiz-adv-x="1110" d="M92 180v750q0 77 38 127q41 55 116 55h372q244 0 336 -162q29 -51 29 -112q0 -181 -131 -232q82 -20 160 -88q67 -78 67 -184q0 -69 -26 -136q-30 -75 -80 -110q-124 -86 -326 -86h-399q-74 0 -117 53q-39 49 -39 125zM385 250h227q183 0 183 115q0 104 -205 104h-205 v-219zM385 670h150q157 0 157 102q0 92 -157 92h-150v-194z" />
<glyph unicode="&#x433;" horiz-adv-x="954" d="M82 322q0 -165 131 -261q117 -86 289 -86q141 0 268 64q143 72 143 164q0 52 -38 91.5t-89 39.5q-45 0 -109.5 -33t-105.5 -51q-35 -17 -90 -17q-116 0 -116 84q0 50 133 103l123 49q256 102 256 301q0 163 -123 258q-112 86 -277 86q-130 0 -239 -51q-129 -60 -129 -162 q0 -54 33 -91q34 -40 87 -40q23 0 118 43t147 43q100 0 100 -82q0 -53 -133 -104l-123 -47q-256 -98 -256 -301z" />
<glyph unicode="&#x434;" horiz-adv-x="1208" d="M74 541q0 164 71 303q76 150 213 223q89 47 201 47q189 0 270 -135q29 123 148 123q69 0 108 -46.5t39 -117.5v-852q0 -260 -155 -399q-148 -133 -412 -133q-131 0 -278 49q-187 62 -187 172q0 43 38.5 86t80.5 43q40 0 156 -45q121 -47 213 -47q114 0 181.5 60.5 t67.5 172.5v70h-4q-94 -140 -297 -140q-217 0 -342 175q-112 157 -112 391zM369 547q0 -122 52 -204q62 -97 177 -97q112 0 176 94q55 81 55 197q0 119 -55 206q-64 101 -176 101q-109 0 -174 -99q-55 -83 -55 -198z" />
<glyph unicode="&#x435;" horiz-adv-x="1133" d="M53 543q0 233 147 399q152 172 382 172q165 0 300 -97q131 -95 193 -251q37 -93 37 -188q0 -132 -129 -132h-629q15 -103 93.5 -158t185.5 -55q65 0 141 33q12 7 129 68q35 18 64 18q48 0 84 -39t36 -88q0 -113 -192 -189q-155 -61 -289 -61q-245 0 -399 162t-154 406z M348 643h469q-12 102 -73.5 163.5t-161.5 61.5q-97 0 -160.5 -63.5t-73.5 -161.5z" />
<glyph unicode="&#x436;" horiz-adv-x="1577" d="M-4 115q0 55 37 98l346 405l-262 234q-58 52 -58 117q0 54 36 93.5t89 39.5q67 0 133 -64l320 -309v684q0 68 40 116t107 48q70 0 109 -46.5t39 -117.5v-688l323 313q66 64 134 64q55 0 89.5 -38.5t34.5 -94.5q0 -66 -57 -117l-262 -234l346 -405q37 -43 37 -98 q0 -58 -40.5 -99t-98.5 -41q-68 0 -142 91l-360 444h-4v-358q0 -71 -38 -116q-40 -48 -110 -48q-67 0 -107 48t-40 116v358l-361 -444q-74 -91 -141 -91q-58 0 -98.5 41t-40.5 99z" />
<glyph unicode="&#x437;" horiz-adv-x="889" d="M20 203q0 -92 144 -164q128 -64 268 -64q172 0 289 86q131 96 131 261q0 86 -37 141q-22 33 -47 61q-36 40 -74 58q58 16 93 72q32 52 32 116q0 163 -123 258q-111 86 -276 86q-131 0 -240 -51q-129 -60 -129 -162q0 -52 34.5 -91.5t86.5 -39.5q21 0 51 14q22 17 66 50 q25 18 71 34q26 9 76 9q40 0 70 -19q53 -34 53 -82q0 -31 -22 -59.5t-52 -30.5q-46 -3 -114 -14q-84 -29 -88 -99v-8q0 -61 61 -99q52 -32 117 -32q133 0 133 -94q0 -107 -141 -107q-54 0 -118 30l-110 56q-31 15 -78 15q-51 0 -89 -40t-38 -91z" />
<glyph unicode="&#x438;" horiz-adv-x="1139" d="M88 369v565q0 69 40 116.5t108 47.5q69 0 108 -46.5t39 -117.5v-514q0 -91 51 -147t141 -56t139.5 56.5t49.5 146.5v514q0 68 40 116t107 48q70 0 109 -46.5t39 -117.5v-787q0 -69 -40 -116t-108 -47q-118 0 -135 108q-88 -121 -284 -121q-183 0 -293.5 108t-110.5 290z " />
<glyph unicode="&#x439;" horiz-adv-x="1139" d="M88 369v565q0 71 39 117.5t109 46.5q69 0 108 -46.5t39 -117.5v-514q0 -88 50.5 -145.5t141.5 -57.5q90 0 139.5 56.5t49.5 146.5v514q0 71 39 117.5t108 46.5q70 0 109 -46.5t39 -117.5v-787q0 -69 -40 -116t-108 -47q-118 0 -135 108q-88 -121 -284 -121 q-183 0 -293.5 108t-110.5 290zM268 1448q0 -116 94 -186q86 -64 207 -66h9q122 0 211 64q98 70 98 186v2q-1 51 -36.5 86t-86.5 35q-50 0 -86.5 -35.5t-36.5 -85.5q-4 -31 -57 -31h-4q-68 1 -68 31q0 51 -35 86t-86 35q-50 0 -86.5 -35.5t-36.5 -85.5z" />
<glyph unicode="&#x43a;" horiz-adv-x="1040" d="M100 152v1261q0 69 40 116.5t108 47.5q69 0 108 -46.5t39 -117.5v-688l324 313q66 64 133 64q55 0 90 -39t35 -94q0 -66 -57 -117l-263 -234l347 -405q36 -42 36 -98q0 -58 -40.5 -99t-98.5 -41q-67 0 -141 91l-361 444h-4v-358q0 -71 -38 -116q-40 -48 -109 -48 q-68 0 -109 49q-39 46 -39 115z" />
<glyph unicode="&#x43b;" horiz-adv-x="1141" d="M-2 117v4q4 49 43 80q14 11 70 22q96 19 96 201v8l-4 551v2q0 117 145 117h580q143 0 143 -119v-866q0 -119 -143 -119q-144 0 -144 119v733h-292l-3 -371q0 -320 -178 -432q-74 -47 -168 -47h-4q-65 1 -106 39q-35 33 -35 78z" />
<glyph unicode="&#x43c;" horiz-adv-x="1593" d="M14 131q3 15 29 111l190 710q15 54 66 107q42 43 113 43q67 0 108 -37q29 -27 62 -100l213 -476h4l213 476q33 74 61 100q40 37 109 37q138 0 178 -150l188 -706q16 -38 25 -76q6 -24 6 -64q0 -55 -47 -88q-42 -30 -100 -30q-118 0 -140 116l-108 564h-4l-234 -551 q-17 -39 -51 -94q-35 -35 -98 -35q-64 0 -99 35q-19 19 -51 94l-233 551h-4l-109 -564q-10 -51 -48.5 -83.5t-90.5 -32.5q-66 0 -107 38.5t-41 104.5z" />
<glyph unicode="&#x43d;" horiz-adv-x="1139" d="M86 156l2 778q0 69 40 116.5t108 47.5q145 0 145 -166v-289h381l2 291q0 70 39 117t108 47q70 0 109 -46.5t39 -117.5v-787q0 -66 -43 -112.5t-109 -46.5q-67 0 -106 47t-39 115v296h-381l-2 -294q-6 -46 -41 -119q-43 -45 -107 -45q-69 0 -109 51q-36 46 -36 117z" />
<glyph unicode="&#x43e;" horiz-adv-x="1139" d="M41 543q0 232 146 398q153 173 382 173q231 0 383 -172q146 -166 146 -399q0 -237 -144 -399q-150 -169 -385 -169t-385 168q-143 162 -143 400zM336 543q0 -120 57 -203q64 -94 176 -94q111 0 176 96q58 86 58 201q0 194 -127 274q-43 27 -107 27q-113 0 -178 -99 q-55 -84 -55 -202z" />
<glyph unicode="&#x43f;" horiz-adv-x="1139" d="M84 152v786q0 68 40 116t107 48q119 0 136 -109q88 121 284 121q184 0 294 -106.5t110 -290.5v-565q0 -71 -38 -116q-40 -48 -110 -48q-67 0 -107 48t-40 116v514q0 92 -51 147t-142 55q-89 0 -138.5 -56t-49.5 -146v-514q0 -71 -38 -116q-40 -48 -110 -48q-67 0 -107 48 t-40 116z" />
<glyph unicode="&#x440;" d="M84 -283v1221q0 68 40 116t107 48q119 0 148 -123q82 135 280 135q227 0 359 -186q117 -165 117 -398q0 -223 -131 -383q-141 -172 -355 -172q-151 0 -270 103v-361q0 -70 -38 -115q-41 -48 -110 -48q-67 0 -108 49q-39 46 -39 114zM379 553q0 -120 54 -206 q63 -101 177 -101q109 0 174 98q56 84 56 199q0 110 -58 200q-65 101 -172 101q-111 0 -176 -94q-55 -80 -55 -197z" />
<glyph unicode="&#x441;" horiz-adv-x="948" d="M41 543q0 232 146 398q153 173 382 173q215 0 322 -96q39 -35 39 -90q0 -53 -31.5 -97.5t-81.5 -44.5q-37 0 -111.5 29t-121.5 29q-121 0 -189 -94q-59 -81 -59 -207q0 -120 63 -203q71 -94 185 -94q50 0 126.5 30.5t92.5 30.5q54 0 90.5 -37.5t36.5 -91.5 q0 -102 -139 -158q-111 -45 -222 -45q-235 0 -385 168q-143 162 -143 400z" />
<glyph unicode="&#x442;" horiz-adv-x="1745" d="M84 152v786q0 68 40 116t107 48q119 0 136 -111q114 123 274 123q186 0 305 -149q129 149 311 149q188 0 296 -104.5t108 -292.5v-565q0 -71 -38 -116q-40 -48 -110 -48q-67 0 -107 48t-40 116v514q0 87 -42 141q-46 61 -130 61q-85 0 -132 -60q-42 -54 -42 -142v-514 q0 -71 -38 -116q-40 -48 -110 -48q-69 0 -109 48q-38 45 -38 116v514q0 87 -42 141q-46 61 -130 61q-174 0 -174 -202v-514q0 -71 -38 -116q-40 -48 -110 -48q-67 0 -107 48t-40 116z" />
<glyph unicode="&#x443;" horiz-adv-x="1034" d="M45 975q0 51 43.5 89t95.5 38q110 0 148 -105l203 -555l217 555q41 105 147 105q54 0 96.5 -37t42.5 -90q0 -41 -14 -76l-494 -1229q-47 -116 -139 -116q-61 0 -105 32q-48 36 -48 95q0 41 18 86l129 319l-326 813q-14 35 -14 76z" />
<glyph unicode="&#x444;" horiz-adv-x="1888" d="M41 555q0 222 131 383q140 172 354 172q152 0 271 -102v381q0 68 40 115.5t107 47.5q69 0 110 -48q38 -45 38 -115v-406q82 131 278 131q227 0 359 -186q116 -163 116 -398q0 -222 -131 -383q-140 -172 -354 -172q-152 0 -270 103v-361q0 -70 -38 -115q-41 -48 -110 -48 q-67 0 -107 48t-40 115v385q-82 -131 -279 -131q-226 0 -358 187q-117 165 -117 397zM336 543q0 -113 57 -201q65 -100 172 -100q101 0 164 77q55 67 66 173v83q-11 110 -64 181q-62 84 -166 84q-109 0 -174 -99q-55 -83 -55 -198zM1090 553q0 -197 127 -279q43 -28 98 -28 t101 23.5t77 72.5q57 89 57 201q0 111 -57 200q-65 101 -172 101q-112 0 -176 -94q-55 -81 -55 -197z" />
<glyph unicode="&#x445;" horiz-adv-x="1024" d="M0 131q0 53 41 100l299 340l-250 281q-45 51 -45 106q0 58 46.5 101t105.5 43q61 0 108 -58l207 -258l207 258q47 58 108 58q59 0 105.5 -43t46.5 -101q0 -55 -45 -106l-250 -281l299 -340q41 -47 41 -100q0 -66 -39.5 -104.5t-105.5 -38.5q-70 0 -123 65l-244 299 l-244 -299q-53 -65 -123 -65q-64 0 -104.5 39.5t-40.5 103.5z" />
<glyph unicode="&#x446;" horiz-adv-x="1249" d="M88 369v565q0 69 40 116.5t108 47.5q69 0 108 -46.5t39 -117.5v-514q0 -91 51 -147t141 -56t139.5 56.5t49.5 146.5v514q0 68 40 116t107 48q70 0 109 -46.5t39 -117.5l-2 -735h114q129 0 129 -156v-248q0 -61 -41 -105t-102 -46h-8q-61 0 -96 50q-31 44 -31 107v181 l-68 -2h-16q-101 0 -121 133q-46 -63 -151 -111q-68 -31 -174 -31q-183 0 -293.5 108t-110.5 290z" />
<glyph unicode="&#x447;" horiz-adv-x="1122" d="M72 717q0 -182 110.5 -290t292.5 -108q197 0 285 121q-2 -20 -2 -98q0 -70 2 -213v-16q0 -67 43 -101q36 -28 92 -28q68 0 109 48q38 46 38 115v787q0 72 -39 118t-108 46t-109 -49q-38 -45 -38 -115v-166q0 -85 -51 -144t-138 -59q-89 0 -140.5 57t-51.5 146v166 q0 71 -39 117.5t-109 46.5q-67 0 -107 -48t-40 -116v-217z" />
<glyph unicode="&#x448;" horiz-adv-x="1745" d="M82 373v565q0 68 40 116t107 48q70 0 109 -46.5t39 -117.5v-514q0 -85 43 -141q47 -62 129 -62q83 0 131 61q43 56 43 142v514q0 71 39 117.5t108 46.5q70 0 109 -46.5t39 -117.5v-514q0 -85 43 -141q47 -62 129 -62q174 0 174 203v514q0 68 40 116t107 48 q70 0 109 -46.5t39 -117.5v-786q0 -71 -38 -116q-40 -48 -110 -48q-118 0 -135 110q-114 -123 -274 -123q-187 0 -305 150q-129 -150 -312 -150q-186 0 -294.5 106t-108.5 292z" />
<glyph unicode="&#x449;" horiz-adv-x="1855" d="M82 373v565q0 68 40 116t107 48q70 0 109 -46.5t39 -117.5v-514q0 -85 43 -141q47 -62 129 -62q83 0 131 61q43 56 43 142v514q0 71 39 117.5t108 46.5q70 0 109 -46.5t39 -117.5v-514q0 -85 43 -141q47 -62 129 -62q174 0 174 203v514q0 68 40 116t107 48 q70 0 109 -46.5t39 -117.5v-739h115q129 0 129 -156v-248q0 -60 -41 -104.5t-101 -46.5h-8q-61 0 -96 50q-31 43 -31 107v181l-70 -2h-14q-45 0 -80 32q-30 33 -43 101q-74 -78 -142.5 -108t-174.5 -30q-187 0 -305 150q-129 -150 -312 -150q-186 0 -294.5 106t-108.5 292z " />
<glyph unicode="&#x44a;" horiz-adv-x="1247" d="M-43 936q0 -62 38.5 -101.5t100.5 -39.5h117v-596q0 -81 36 -136q43 -63 120 -63h399q179 0 291 86q141 108 141 289q0 217 -182 309q-130 66 -363 66h-149l-2 163q-1 76 -42 120t-106 44h-260q-77 -13 -102 -43q-37 -45 -37 -98zM504 258v240l229 2h4q64 0 113 -25 q63 -31 63 -94q0 -123 -180 -123h-229z" />
<glyph unicode="&#x44b;" horiz-adv-x="1577" d="M80 199v739q0 68 40 116t107 48q65 0 107 -45q41 -44 41 -115v-4l-2 -188h149q231 0 363 -66q113 -57 159 -176q25 -65 25 -133q0 -114 -63.5 -205.5t-169.5 -136.5q-78 -33 -201 -33h-399q-77 0 -120 63q-36 55 -36 136zM371 258h229q180 0 180 123q0 63 -62 95 q-47 24 -112 24h-6l-229 -2v-240zM1202 152v786q0 69 40 116.5t108 47.5q69 0 108 -46.5t39 -117.5v-786q0 -71 -38 -116q-40 -48 -109 -48q-68 0 -109 49q-39 46 -39 115z" />
<glyph unicode="&#x44c;" horiz-adv-x="1122" d="M96 199v739q0 69 40 116.5t108 47.5q64 0 106 -45q41 -44 41 -115v-4l-2 -188h150q229 0 362 -66q115 -57 160 -176q24 -64 24 -133q0 -114 -63.5 -205.5t-169.5 -136.5q-78 -33 -201 -33h-399q-77 0 -120 63q-36 55 -36 136zM387 258h229q181 0 181 123q0 63 -63 95 q-47 24 -112 24h-6l-229 -2v-240z" />
<glyph unicode="&#x44d;" horiz-adv-x="948" d="M25 178q0 55 36 92t91 37q20 0 98 -30.5t121 -30.5q84 0 145 53q58 50 86 135l4 12h-307q-57 0 -82 52q-12 25 -12 49q0 23 14 49q25 47 80 47h307l-2 12q-51 189 -233 189q-48 0 -122 -29t-112 -29q-46 0 -80 45q-32 41 -32 89v8q6 58 41 90q107 96 319 96 q231 0 383 -174q145 -166 145 -397q0 -238 -143 -400q-150 -168 -385 -168q-117 0 -223 45q-137 58 -137 158z" />
<glyph unicode="&#x44e;" horiz-adv-x="1714" d="M86 156l2 778q0 69 40 116.5t108 47.5q145 0 145 -166v-289h246q32 202 173 334q146 137 347 137q229 0 382 -173q146 -166 146 -398q0 -236 -145 -399q-150 -169 -383 -169q-205 0 -348.5 134.5t-173.5 336.5h-244l-2 -294q-6 -46 -41 -119q-43 -45 -107 -45 q-69 0 -109 51q-36 46 -36 117zM913 543q0 -118 58 -203q64 -94 176 -94t176 96q57 84 57 201q0 192 -129 274q-43 27 -104 27q-113 0 -178 -99q-56 -86 -56 -202z" />
<glyph unicode="&#x44f;" horiz-adv-x="1110" d="M-2 109q0 -121 145 -121q138 0 230 129q44 80 135 239q41 69 88 70l147 2l-2 -276q0 -69 39 -115q42 -49 109 -49q69 0 109 48q38 45 38 116v786q-12 91 -45 127q-44 47 -110 47h-394q-114 0 -221 -68q-57 -36 -97 -109q-38 -69 -44 -140v-21q0 -103 72 -184 q40 -45 131 -76q-36 -10 -66 -57q-13 -19 -55 -101q-19 -37 -37 -75q-27 -41 -66 -41q-44 0 -73 -34.5t-33 -80.5v-16zM403 762v4q11 98 119 98h219v-202h-219q-47 0 -83 27t-36 73z" />
<glyph unicode="&#x451;" horiz-adv-x="1100" d="M20 543q0 233 147 399q152 172 382 172q165 0 300 -97q131 -95 193 -251q37 -93 37 -188q0 -132 -129 -132h-628q14 -102 93 -157.5t185 -55.5q68 0 141 33q25 13 129 68q34 18 64 18q48 0 84.5 -39t36.5 -88q0 -113 -193 -189q-155 -61 -289 -61q-245 0 -399 161 t-154 407zM178 1382q0 62 43 105t105 43t104.5 -43t42.5 -105q0 -61 -43 -104t-104 -43q-62 0 -105 42.5t-43 104.5zM315 643h469q-12 103 -73 164t-162 61q-98 0 -160.5 -63t-73.5 -162zM629 1382q0 62 42.5 105t104.5 43t105 -43t43 -105t-43 -104.5t-105 -42.5 q-61 0 -104 43t-43 104z" />
<glyph unicode="&#x2000;" horiz-adv-x="951" />
<glyph unicode="&#x2001;" horiz-adv-x="1903" />
<glyph unicode="&#x2002;" horiz-adv-x="951" />
<glyph unicode="&#x2003;" horiz-adv-x="1903" />
<glyph unicode="&#x2004;" horiz-adv-x="634" />
<glyph unicode="&#x2005;" horiz-adv-x="475" />
<glyph unicode="&#x2006;" horiz-adv-x="317" />
<glyph unicode="&#x2007;" horiz-adv-x="317" />
<glyph unicode="&#x2008;" horiz-adv-x="237" />
<glyph unicode="&#x2009;" horiz-adv-x="380" />
<glyph unicode="&#x200a;" horiz-adv-x="105" />
<glyph unicode="&#x2010;" horiz-adv-x="797" d="M63 592q0 55 31.5 93t85.5 38h436q57 0 89 -39q28 -34 28 -92q0 -54 -31.5 -90.5t-85.5 -36.5h-436q-51 0 -86 41q-31 37 -31 86z" />
<glyph unicode="&#x2011;" horiz-adv-x="797" d="M63 592q0 55 31.5 93t85.5 38h436q57 0 89 -39q28 -34 28 -92q0 -54 -31.5 -90.5t-85.5 -36.5h-436q-51 0 -86 41q-31 37 -31 86z" />
<glyph unicode="&#x2012;" horiz-adv-x="797" d="M63 592q0 55 31.5 93t85.5 38h436q57 0 89 -39q28 -34 28 -92q0 -54 -31.5 -90.5t-85.5 -36.5h-436q-51 0 -86 41q-31 37 -31 86z" />
<glyph unicode="&#x2013;" horiz-adv-x="1024" d="M0 594q0 123 123 123h778q123 0 123 -123t-123 -123h-778q-123 0 -123 123z" />
<glyph unicode="&#x2014;" horiz-adv-x="2048" d="M-123 594q0 123 123 123h2048q123 0 123 -123t-123 -123h-2048q-123 0 -123 123z" />
<glyph unicode="&#x2018;" horiz-adv-x="492" d="M18 1024q0 37 25 82l170 307q39 70 119 70q57 0 99 -39.5t42 -95.5q0 -15 -27 -82l-172 -308q-39 -69 -116 -69q-54 0 -97 41t-43 94z" />
<glyph unicode="&#x2019;" horiz-adv-x="492" d="M18 1024q0 37 25 82l170 307q39 70 119 70q57 0 99 -39.5t42 -95.5q0 -15 -27 -82l-172 -308q-39 -69 -116 -69q-54 0 -97 41t-43 94z" />
<glyph unicode="&#x201a;" horiz-adv-x="492" d="M18 -139q0 37 25 82l170 307q38 69 119 69q57 0 99 -39t42 -96q0 -14 -27 -82l-172 -307q-39 -69 -116 -69q-53 0 -96.5 40.5t-43.5 94.5z" />
<glyph unicode="&#x201c;" horiz-adv-x="909" d="M18 1024q0 37 25 82l170 307q39 70 119 70q57 0 99 -39.5t42 -95.5q0 -15 -27 -82l-172 -308q-39 -69 -116 -69q-54 0 -97 41t-43 94zM436 1024q0 37 25 82l170 307q39 70 119 70q57 0 99 -39.5t42 -95.5q0 -15 -27 -82l-172 -308q-39 -69 -117 -69q-53 0 -96 41t-43 94z " />
<glyph unicode="&#x201d;" horiz-adv-x="909" d="M18 1024q0 37 25 82l170 307q39 70 119 70q57 0 99 -39.5t42 -95.5q0 -15 -27 -82l-172 -308q-39 -69 -116 -69q-54 0 -97 41t-43 94zM436 1024q0 37 25 82l170 307q39 70 119 70q57 0 99 -39.5t42 -95.5q0 -15 -27 -82l-172 -308q-39 -69 -117 -69q-53 0 -96 41t-43 94z " />
<glyph unicode="&#x201e;" horiz-adv-x="909" d="M18 -139q0 37 25 82l170 307q38 69 119 69q57 0 99 -39t42 -96q0 -14 -27 -82l-172 -307q-39 -69 -116 -69q-53 0 -96.5 40.5t-43.5 94.5zM436 -139q0 37 25 82l170 307q38 69 119 69q57 0 99 -39t42 -96q0 -14 -27 -82l-172 -307q-39 -69 -117 -69q-52 0 -95.5 40.5 t-43.5 94.5z" />
<glyph unicode="&#x2026;" horiz-adv-x="2048" d="M182 135q0 66 47 113t113 47t113 -47t47 -113t-47 -113t-113 -47t-113 47t-47 113zM864 135q0 66 47 113t113 47t113 -47t47 -113t-47 -113t-113 -47t-113 47t-47 113zM1546 135q0 66 47 113t113 47t113 -47t47 -113t-47 -113t-113 -47t-113 47t-47 113z" />
<glyph unicode="&#x202f;" horiz-adv-x="380" />
<glyph unicode="&#x2039;" horiz-adv-x="606" d="M76 584q0 45 49 114l199 281q30 35 88 35q54 0 86 -31t32 -82q0 -44 -22 -78l-162 -248l162 -243q22 -33 22 -70q0 -57 -32.5 -93t-89.5 -36q-70 0 -103 51l-211 326q-18 28 -18 74z" />
<glyph unicode="&#x203a;" horiz-adv-x="606" d="M76 246q0 44 22 78l162 247l-162 244q-22 33 -22 70q0 55 34.5 92t88.5 37q69 0 102 -51l211 -326q18 -28 18 -74q0 -44 -49 -114l-198 -281q-31 -35 -88 -35q-49 0 -84 33t-35 80z" />
<glyph unicode="&#x205f;" horiz-adv-x="475" />
<glyph unicode="&#x2122;" horiz-adv-x="2048" d="M86 1366q0 92 92 92h570q92 0 92 -92t-92 -92h-162v-537q0 -123 -123 -123t-123 123v537h-162q-92 0 -92 92zM958 737v606q0 127 175 127q132 0 182 -127l145 -372l146 372q33 83 82 107q41 20 100 20q174 0 174 -127v-606q0 -123 -111 -123q-110 0 -110 123v426h-4 l-148 -426q-23 -67 -41 -88q-30 -35 -88 -35t-88 35q-18 21 -41 88l-147 426h-4v-426q0 -123 -111 -123t-111 123z" />
<glyph unicode="&#xe000;" horiz-adv-x="1100" d="M0 0v1100h1100v-1100h-1100z" />
</font>
</defs>
</svg>
